<svg width="40" height="40" viewBox="0 0 40 40" fill="none" xmlns="http://www.w3.org/2000/svg">
<g clip-path="url(#clip0)">
<path d="M21.7759 16.7638V17.4878C21.7759 21.7718 21.7719 26.0598 21.7879 30.3478C21.7879 30.7638 21.6679 30.8598 21.2719 30.8518C19.9999 30.8278 18.7319 30.8398 17.4599 30.8478C17.3119 30.8478 17.0959 30.7638 17.0799 31.0438C17.0639 31.3478 17.2959 31.2838 17.4639 31.2838L21.3679 31.2878C21.4959 31.2878 21.7039 31.2238 21.7319 31.3758C21.7719 31.5878 21.5359 31.5558 21.4039 31.5918L17.4719 32.6638C17.3839 32.6878 17.2919 32.6998 17.2079 32.7358C17.0399 32.8038 17.0599 32.9558 17.0879 33.0878C17.1199 33.2638 17.2719 33.1918 17.3439 33.1558C18.0639 32.7918 18.6999 33.0998 19.3519 33.3678C20.0559 33.6598 20.7679 33.9358 21.4839 34.1998C21.7079 34.2838 21.8079 34.4038 21.7719 34.6398C21.7319 34.9158 21.5159 34.8038 21.3759 34.8078C20.0759 34.8158 18.7759 34.8118 17.4719 34.8158C17.3119 34.8158 17.0839 34.7278 17.0719 35.0398C17.0599 35.3558 17.2919 35.2718 17.4559 35.2718C17.9719 35.2798 18.4879 35.2758 19.0359 35.3598C18.4759 35.6838 17.9239 36.0158 17.3559 36.3238C17.0879 36.4678 17.0039 36.6398 17.1399 36.9718C17.8079 36.5918 18.4999 36.2598 19.1159 35.8238C19.8399 35.3118 20.6159 35.2078 21.4559 35.2638C21.6879 35.2798 21.7679 35.3318 21.7799 35.5758C21.8279 36.6638 21.8359 36.6718 20.7879 36.8758C19.7079 37.0838 18.6279 37.2758 17.5439 37.4758C17.2959 37.5238 17.0719 37.5358 17.0239 37.9038C16.8639 39.1718 15.7999 40.0598 14.5959 39.9878C13.2839 39.9038 12.3359 38.9118 12.3319 37.5678C12.3199 34.9798 12.3319 32.3918 12.3319 29.8078C12.3319 29.1478 12.3279 28.4918 12.3359 27.8318C12.3399 27.6278 12.2879 27.5558 12.0679 27.5078C10.6079 27.1798 9.97192 26.3398 9.97192 24.8358C9.97592 21.2678 9.97192 17.7038 9.97192 14.1358C9.97192 13.7518 9.97192 13.3678 10.0759 12.9958C10.3599 11.9878 11.2559 11.2998 12.3199 11.2878C13.6799 11.2758 15.0439 11.2958 16.4079 11.2718C16.7719 11.2678 16.8279 11.3958 16.8239 11.7198C16.8119 15.9758 16.8159 20.2318 16.8199 24.4878C16.8199 24.6238 16.8199 24.7638 16.8239 24.8998C16.8279 25.0398 16.8999 25.1398 17.0439 25.1398C17.1839 25.1398 17.2639 25.0398 17.2759 24.9038C17.2879 24.7678 17.2839 24.6278 17.2839 24.4918C17.2839 20.2518 17.2919 16.0118 17.2719 11.7718C17.2719 11.3518 17.3919 11.2718 17.7799 11.2798C19.0799 11.3038 20.3799 11.2958 21.6839 11.2838C22.3119 11.2798 22.8479 11.4918 23.3239 11.8838C24.7439 13.0478 26.1599 14.2158 27.5919 15.3678C28.2599 15.9038 28.5959 16.5838 28.5759 17.4358C28.5759 17.5438 28.5719 17.6518 28.5719 17.7558C28.5759 18.0758 28.4719 18.4598 28.6119 18.7038C28.7759 18.9878 29.1959 18.7798 29.4999 18.8198C29.7919 18.8558 29.9679 18.9918 29.9679 19.2798C29.9719 20.9318 30.0559 22.5878 29.9279 24.2358C29.8679 25.0358 29.4319 25.7398 28.9759 26.3958C28.3839 27.2518 27.7719 28.0918 27.1559 28.9318C26.8279 29.3798 26.6839 29.8518 26.6879 30.4238C26.7119 33.3318 26.6959 36.2398 26.6959 39.1478C26.6959 39.2838 26.7039 39.4238 26.6799 39.5598C26.6319 39.8398 26.4559 40.0038 26.1719 39.9798C25.9119 39.9598 25.7519 39.7918 25.7399 39.5318C25.7239 39.2558 25.7319 38.9798 25.7319 38.7038C25.7319 35.9478 25.7199 33.1918 25.7479 30.4358C25.7519 29.8638 25.6039 29.3918 25.2759 28.9438C24.6719 28.1158 24.0639 27.2918 23.4839 26.4438C23.0159 25.7598 22.6159 25.0398 22.4839 24.1998C22.4559 24.0198 22.4319 23.8358 22.4279 23.6518C22.4239 22.2758 22.4239 20.8958 22.4279 19.5198C22.4279 18.9478 22.5639 18.8158 23.1239 18.8118C23.2159 18.8118 23.3119 18.8238 23.3999 18.8078C23.5479 18.7758 23.7599 18.9198 23.8319 18.6798C23.8879 18.4838 23.7919 18.3358 23.6279 18.2118C23.0479 17.7678 22.4639 17.2998 21.7759 16.7638ZM26.2239 28.6158C26.9279 27.5878 27.6999 26.6798 28.3239 25.6638C28.6679 25.0998 29.0119 24.5158 29.0319 23.8478C29.0719 22.5798 29.0439 21.3078 29.0479 20.0398C29.0479 19.8558 29.0039 19.7558 28.7919 19.7638C28.5879 19.7678 28.5799 19.8918 28.5799 20.0398V20.7758C28.5799 21.5718 28.5959 22.3678 28.5759 23.1598C28.5399 24.3958 27.4999 25.3998 26.2559 25.4318C25.0599 25.4598 23.9719 24.5278 23.8999 23.3198C23.8359 22.2678 23.8719 21.2118 23.8599 20.1558C23.8599 19.9798 23.9119 19.7598 23.6119 19.7758C23.3319 19.7918 23.4239 20.0118 23.4239 20.1558C23.4159 21.3478 23.4239 22.5438 23.4199 23.7318C23.4199 24.1238 23.5239 24.4878 23.6839 24.8358C24.3239 26.2238 25.3599 27.3358 26.2239 28.6158ZM17.0599 -0.000153653C19.6719 0.0158463 21.7959 2.15185 21.7719 4.74785C21.7519 7.32785 19.6159 9.44385 17.0439 9.43985C14.4119 9.43585 12.3159 7.27985 12.3359 4.59585C12.3559 2.09185 14.5239 -0.0161537 17.0599 -0.000153653ZM18.9159 39.9038C19.4919 39.0838 20.0399 38.2638 20.6399 37.4838C20.8759 37.1758 21.3079 37.2518 21.6599 37.2078C21.7799 37.1918 21.7599 37.3278 21.7719 37.4158C21.9599 38.9438 20.4399 40.2958 18.9159 39.9038ZM20.0639 37.4798C19.5199 38.2598 19.0359 38.9398 18.5599 39.6278C18.4519 39.7838 18.3519 39.7558 18.2159 39.6758C17.6759 39.3598 17.3399 38.8918 17.1359 38.3078C17.0519 38.0758 17.1679 38.0078 17.3599 37.9718C18.2279 37.8158 19.0919 37.6558 20.0639 37.4798ZM18.9519 32.7278C19.8879 32.4758 20.7079 32.2598 21.5279 32.0278C21.7239 31.9718 21.7759 32.0398 21.7719 32.2198C21.7679 32.6758 21.7719 33.1358 21.7719 33.5918C21.7719 33.7518 21.7199 33.8158 21.5519 33.7518C20.7279 33.4238 19.8959 33.0958 18.9519 32.7278Z" fill="#558EFF"/>
</g>
<defs>
<clipPath id="clip0">
<rect width="40" height="40" fill="white"/>
</clipPath>
</defs>
</svg>
